<?xml version="1.0" encoding="UTF-8"?><svg xmlns="http://www.w3.org/2000/svg" viewBox="0 0 39.32 39.32"><defs><style>.d{fill:#010101;fill-rule:evenodd;}.e{fill:none;}</style></defs><g id="a"/><g id="b"><g id="c"><rect class="e" width="39.32" height="39.32"/><path class="d" d="M27.66,21.66c-.55,0-1,.45-1,1v3.08c0,.46-.02,.57-.08,.68-.03,.07-.09,.12-.16,.16-.11,.06-.23,.08-.68,.08H13.58c-.46,0-.57-.02-.68-.08-.07-.03-.12-.09-.16-.16-.06-.11-.08-.23-.08-.68V13.16c0-.28,.22-.5,.5-.5h3.5c.55,0,1-.44,1-.99,0-.55-.45-1-1-1h-3.5c-1.38,0-2.5,1.11-2.5,2.49h0v12.58c0,.76,.08,1.18,.32,1.63,.22,.42,.56,.75,.98,.98,.44,.24,.87,.32,1.63,.32h12.15c.76,0,1.18-.08,1.63-.32,.42-.22,.75-.56,.98-.98,.24-.44,.32-.87,.32-1.63v-3.08c0-.55-.45-1-1-1Zm-2-9.06v-.29l-.39,.09c-.74,.17-1.49,.26-2.25,.26h-1.36c-.55,0-1-.45-1-1s.45-1,1-1h5.5c.83,0,1.5,.67,1.5,1.5h0v5.5c0,.55-.45,1-1,1s-1-.45-1-1v-1.36c0-.76,.09-1.51,.26-2.25l.09-.39h-.3c-.4,.64-.87,1.24-1.41,1.78l-5.93,5.93c-.4,.38-1.03,.37-1.41-.02-.37-.39-.37-1,0-1.39l5.94-5.94c.53-.53,1.12-1,1.76-1.4Z"/></g></g></svg>